<?xml version="1.0" encoding="UTF-8"?>
<svg id="_レイヤー_2" data-name="レイヤー 2" xmlns="http://www.w3.org/2000/svg" xmlns:xlink="http://www.w3.org/1999/xlink" viewBox="0 0 743.77 208.1">
  <defs>
    <style>
      .cls-1 {
        fill: none;
      }

      .cls-2 {
        fill: #231815;
      }

      .cls-3 {
        clip-path: url(#clippath-1);
      }

      .cls-4 {
        clip-path: url(#clippath);
      }
    </style>
    <clipPath id="clippath">
      <rect class="cls-1" y="116.84" width="743.77" height="91.25"/>
    </clipPath>
    <clipPath id="clippath-1">
      <rect class="cls-1" width="743.77" height="100"/>
    </clipPath>
  </defs>
  <g id="_レイヤー_1-2" data-name="レイヤー 1">
    <g>
      <g class="cls-4">
        <g>
          <path class="cls-2" d="M0,11.94h57.17l46.57,74.45L150.32,11.94h57.17v192.31h-53.82v-110.44l-49.92,75.27h-1.12l-49.64-74.73v109.89H0V11.94Z"/>
          <path class="cls-2" d="M235.37,108.65v-.55c0-55.22,45.18-100,105.42-100s104.86,44.23,104.86,99.45v.55c0,55.22-45.18,100-105.42,100s-104.86-44.23-104.86-99.45ZM390.43,108.65v-.55c0-27.75-20.36-51.92-50.2-51.92s-49.36,23.63-49.36,51.37v.55c0,27.75,20.36,51.92,49.92,51.92s49.64-23.63,49.64-51.37Z"/>
          <path class="cls-2" d="M467.12,108.65v-.55c0-56.04,44.62-100,105.14-100,34.3,0,58.57,10.44,79.2,28.02l-31.79,37.64c-13.94-11.54-27.89-18.13-47.13-18.13-28.17,0-49.92,23.35-49.92,52.75v.55c0,31.04,22.03,53.3,52.99,53.3,13.11,0,23.15-2.75,31.23-7.97v-23.35h-38.49v-39.01h89.8v86.54c-20.64,16.76-49.36,29.67-84.78,29.67-60.8,0-106.25-41.21-106.25-99.45Z"/>
          <path class="cls-2" d="M689.38,11.94h54.38v192.31h-54.38V11.94Z"/>
        </g>
      </g>
      <g class="cls-3">
        <g>
          <path class="cls-2" d="M0,3.85h57.17l46.57,74.45L150.32,3.85h57.17v192.31h-53.82v-110.44l-49.92,75.27h-1.12l-49.64-74.73v109.89H0V3.85Z"/>
          <path class="cls-2" d="M235.37,100.55v-.55C235.37,44.78,280.55,0,340.79,0s104.86,44.23,104.86,99.45v.55c0,55.22-45.18,100-105.42,100s-104.86-44.23-104.86-99.45ZM390.43,100.55v-.55c0-27.75-20.36-51.92-50.2-51.92s-49.36,23.63-49.36,51.37v.55c0,27.75,20.36,51.92,49.92,51.92s49.64-23.63,49.64-51.37Z"/>
          <path class="cls-2" d="M467.12,100.55v-.55c0-56.04,44.62-100,105.14-100,34.3,0,58.57,10.44,79.2,28.02l-31.79,37.64c-13.94-11.54-27.89-18.13-47.13-18.13-28.17,0-49.92,23.35-49.92,52.75v.55c0,31.04,22.03,53.3,52.99,53.3,13.11,0,23.15-2.75,31.23-7.97v-23.35h-38.49v-39.01h89.8v86.54c-20.64,16.76-49.36,29.67-84.78,29.67-60.8,0-106.25-41.21-106.25-99.45Z"/>
          <path class="cls-2" d="M689.38,3.85h54.38v192.31h-54.38V3.85Z"/>
        </g>
      </g>
    </g>
  </g>
</svg>